# xmcd
#
# Track frame offsets: 
#        150
#        14693
#        29256
#
# Disc length: 582 seconds
#
# Revision: 0
# Processed by: cddbd v1.5.2PL0 Copyright (c) Steve Scherf et al.
# Submitted via: ExactAudioCopy v0.99pb4
#
DISCID=1d024403
DTITLE=50 Cent - Window Shopper [CDS)
DYEAR=2005
DGENRE=Hip-Hop
TTITLE0=Window Shopper (Clean)
TTITLE1=Window Shopper
TTITLE2=Window Shopper (Instrumental)
EXTD=
EXTT0=
EXTT1=
EXTT2=
PLAYORDER=
